<svg width="11" height="11" viewBox="0 0 11 11" fill="none" xmlns="http://www.w3.org/2000/svg">
<path d="M2.38707 1.17309H1.26082L6.54011 6.45202L7.1267 5.90067M10.0362 9.45514L9.54344 9.94784C9.48917 10.0022 9.42471 10.0454 9.35375 10.0748C9.28279 10.1042 9.20672 10.1194 9.12989 10.1194C9.05307 10.1194 8.977 10.1042 8.90604 10.0748C8.83508 10.0454 8.77062 10.0022 8.71635 9.94784L6.8862 8.11782L5.31414 9.67803L4.48705 8.851L5.32001 8.0181L0.0876465 2.7861V0H2.87394L8.1063 5.232L8.93925 4.39911L9.76634 5.22614L8.20015 6.79222L10.0303 8.62225C10.2649 8.85687 10.2649 9.22639 10.0362 9.45514Z" fill="#BEA77E"/>
</svg>
